<svg xmlns="http://www.w3.org/2000/svg" viewBox="0 0 64 64" role="img" aria-labelledby="title desc">
  <title id="title">Sphere Digital favicon</title>
  <desc id="desc">Rounded square badge with a stylized letter S.</desc>
  <defs>
    <linearGradient id="bg" x1="6" y1="6" x2="58" y2="58" gradientUnits="userSpaceOnUse">
      <stop offset="0" stop-color="#10253d"/>
      <stop offset="0.55" stop-color="#1b4f7c"/>
      <stop offset="1" stop-color="#36c0ff"/>
    </linearGradient>
    <linearGradient id="sFill" x1="16" y1="14" x2="48" y2="50" gradientUnits="userSpaceOnUse">
      <stop offset="0" stop-color="#ffffff"/>
      <stop offset="1" stop-color="#d8f0ff"/>
    </linearGradient>
    <filter id="softShadow" x="-20%" y="-20%" width="140%" height="140%" color-interpolation-filters="sRGB">
      <feDropShadow dx="0" dy="1.2" stdDeviation="1.1" flood-color="#021321" flood-opacity="0.35"/>
    </filter>
  </defs>

  <rect x="4" y="4" width="56" height="56" rx="14" fill="url(#bg)"/>
  <rect x="7" y="7" width="50" height="50" rx="11" fill="none" stroke="#ffffff" stroke-opacity="0.14"/>

  <path
    d="M45.8 18.4C41.7 14.7 36.6 13 31.3 13C24.2 13 18.1 16.5 17.1 22.4C16.1 28 20.8 31.2 28.1 32.6L32.9 33.6C36.8 34.3 39.1 35.5 38.8 38C38.4 41 35 42.7 30.8 42.7C26.1 42.7 22.3 40.9 19.5 37.4L15.2 41.9C18.9 46.6 24.4 49.1 30.7 49.1C38.9 49.1 45.6 45 46.7 38.5C47.8 32.3 42.9 28.9 35.5 27.5L30.8 26.6C27 25.9 24.8 24.8 25.1 22.5C25.5 19.9 28.5 18.4 32.4 18.4C36.2 18.4 39.4 19.7 41.9 22.4L45.8 18.4Z"
    fill="url(#sFill)"
    filter="url(#softShadow)"
  />

  <path d="M19 19.5C22.4 16.4 26.7 15 31.1 15" fill="none" stroke="#ffffff" stroke-opacity="0.34" stroke-width="1.6" stroke-linecap="round"/>
  <circle cx="47" cy="17" r="2.1" fill="#ffffff" fill-opacity="0.32"/>
</svg>
