<svg xmlns="http://www.w3.org/2000/svg" viewBox="0 0 64 64" role="img" aria-labelledby="title desc">
  <title id="title">Sphere Digital favicon</title>
  <desc id="desc">Standalone letter S logo mark.</desc>
  <path
    d="M46.8 17.7C42.6 13.9 37.2 12 31.6 12C23.9 12 17.4 15.8 16.4 22.1C15.3 28.1 20.4 31.5 28.2 33L33.3 34C37.4 34.8 39.8 36 39.5 38.6C39.1 41.8 35.4 43.6 30.9 43.6C25.9 43.6 21.9 41.7 19 37.9L14.3 42.7C18.2 47.8 24 50.5 30.8 50.5C39.5 50.5 46.6 46.1 47.7 39.2C48.9 32.6 43.7 29 35.9 27.4L30.9 26.5C26.9 25.7 24.5 24.5 24.8 22C25.2 19.3 28.5 17.7 32.6 17.7C36.7 17.7 40 19.1 42.7 22L46.8 17.7Z"
    fill="#ffffff"
  />
</svg>
